<?xml version="1.0" encoding="UTF-8"?>
<svg width="32" height="32" viewBox="0 0 32 32" fill="none" xmlns="http://www.w3.org/2000/svg">
  <!-- Pip the Robin - favicon (head+breast focus) -->
  <!-- Body outline -->
  <ellipse cx="17" cy="18" rx="10" ry="11" fill="white" stroke="#1A1A19" stroke-width="1.5"/>
  <!-- Terracotta breast -->
  <path d="M14 13c2-1 6-1 8 1 1 2 1 5-1 7-2 1-5 1-6-1-1-2-2-5-1-7z" fill="#D97757"/>
  <!-- Head -->
  <circle cx="21" cy="11" r="6" fill="white" stroke="#1A1A19" stroke-width="1.5"/>
  <!-- Eye -->
  <circle cx="23" cy="10" r="1.5" fill="#1A1A19"/>
  <!-- Beak -->
  <path d="M27 11l3-0.5-3 1.5z" fill="#D97757" stroke="#1A1A19" stroke-width="0.5"/>
  <!-- Wing -->
  <path d="M10 16c2-2 5-1 6 1s0 4-2 5-5-1-4-6z" fill="none" stroke="#1A1A19" stroke-width="1.2"/>
  <!-- Tail with pixel dissolve -->
  <path d="M7 19l-2 2h3z" fill="#D97757" stroke="#1A1A19" stroke-width="0.8"/>
  <!-- Pixel squares -->
  <rect x="3" y="15" width="2" height="2" fill="#D97757" opacity="0.9"/>
  <rect x="5" y="13" width="1.5" height="1.5" fill="#1A1A19" opacity="0.8"/>
  <rect x="2" y="12" width="1.5" height="1.5" fill="#D97757" opacity="0.7"/>
  <rect x="4" y="10" width="1" height="1" fill="#1A1A19" opacity="0.5"/>
  <rect x="1" y="9" width="1" height="1" fill="#D97757" opacity="0.4"/>
</svg>
