<svg width="512" height="512" viewBox="0 0 512 512" fill="none" xmlns="http://www.w3.org/2000/svg">
  <!-- Rocket Body -->
  <path d="M256 50C200 50 160 150 160 280C160 350 180 400 256 420C332 400 352 350 352 280C352 150 312 50 256 50Z" stroke="#0F172A" stroke-width="20" stroke-linejoin="round"/>
  
  <!-- Circuit Brain Icon -->
  <circle cx="256" cy="220" r="70" stroke="#10B981" stroke-width="15"/>
  <path d="M256 180V260M216 220H296" stroke="#10B981" stroke-width="8" stroke-linecap="round"/>
  <circle cx="256" cy="180" r="8" fill="#10B981"/>
  <circle cx="256" cy="260" r="8" fill="#10B981"/>
  <circle cx="216" cy="220" r="8" fill="#10B981"/>
  <circle cx="296" cy="220" r="8" fill="#10B981"/>
  
  <!-- Fins -->
  <path d="M160 320C120 320 100 380 120 450C140 430 160 420 160 420" stroke="#0F172A" stroke-width="20" stroke-linecap="round" stroke-linejoin="round"/>
  <path d="M352 320C392 320 412 380 392 450C372 430 352 420 352 420" stroke="#0F172A" stroke-width="20" stroke-linecap="round" stroke-linejoin="round"/>
  
  <!-- Flame/Engine -->
  <path d="M230 420C230 460 256 500 256 500C256 500 282 460 282 420" stroke="#0F172A" stroke-width="15" stroke-linecap="round"/>
</svg>
